# xmcd
#
# Track frame offsets: 
#        150
#        6831
#        20233
#        31930
#        46992
#
# Disc length: 798 seconds
#
# Revision: 3
# Processed by: cddbd v1.5.2PL0 Copyright (c) Steve Scherf et al.
# Submitted via: ExactAudioCopy v1.0b3
#
DISCID=36031c05
DTITLE=FromSoftware - ARMORED CORE FORMULA FRONT OFFICIAL SOUND TRACK 
DTITLE=Historic FF-
DYEAR=2005
DGENRE=Game
TTITLE0=FAKE FACER ps2mix
TTITLE1=isaku-no.373
TTITLE2=INJECT THE RIGHT TRACKS
TTITLE3=AP 10%
TTITLE4=FAKE FEVER
EXTD=
EXTT0=
EXTT1=
EXTT2=
EXTT3=
EXTT4=
PLAYORDER=
